<?xml version="1.0" encoding="utf-8"?>
<!-- Generator: Adobe Illustrator 26.5.0, SVG Export Plug-In . SVG Version: 6.00 Build 0)  -->
<!DOCTYPE svg PUBLIC "-//W3C//DTD SVG 1.1//EN" "http://www.w3.org/Graphics/SVG/1.1/DTD/svg11.dtd" [
	<!ENTITY ns_extend "http://ns.adobe.com/Extensibility/1.0/">
	<!ENTITY ns_ai "http://ns.adobe.com/AdobeIllustrator/10.0/">
	<!ENTITY ns_graphs "http://ns.adobe.com/Graphs/1.0/">
	<!ENTITY ns_vars "http://ns.adobe.com/Variables/1.0/">
	<!ENTITY ns_imrep "http://ns.adobe.com/ImageReplacement/1.0/">
	<!ENTITY ns_sfw "http://ns.adobe.com/SaveForWeb/1.0/">
	<!ENTITY ns_custom "http://ns.adobe.com/GenericCustomNamespace/1.0/">
	<!ENTITY ns_adobe_xpath "http://ns.adobe.com/XPath/1.0/">
]>
<svg version="1.1" id="Capa_2" xmlns:x="&ns_extend;" xmlns:i="&ns_ai;" xmlns:graph="&ns_graphs;"
	 xmlns="http://www.w3.org/2000/svg" xmlns:xlink="http://www.w3.org/1999/xlink" x="0px" y="0px" viewBox="0 0 900 394"
	 style="enable-background:new 0 0 900 394;" xml:space="preserve">
<style type="text/css">
	.st0{display:none;fill:#FFFFFF;}
	.st1{font-family:'Gotham-Bold';}
	.st2{font-size:23.822px;}
	.st3{letter-spacing:2;}
	.st4{display:none;}
	.st5{display:inline;fill:#FFFFFF;}
	.st6{fill:#FFFFFF;}
	.st7{fill:url(#SVGID_1_);}
</style>
<metadata>
	<sfw  xmlns="&ns_sfw;">
		<slices></slices>
		<sliceSourceBounds  bottomLeftOrigin="true" height="710.3" width="929.8" x="693" y="-288"></sliceSourceBounds>
	</sfw>
</metadata>
<rect x="0.9" y="0" width="899" height="394"/>
<text transform="matrix(1 0 0 1 285.0949 15.8262)" class="st0 st1 st2 st3">DEL 13 AL 22 DE JUNIO</text>
<g class="st4">
	<path class="st5" d="M287.1,206.2h6.5c5.2,0,8.9,3.6,8.9,8.3v0c0,4.7-3.6,8.3-8.9,8.3h-6.5V206.2z M290.8,209.5v10.1h2.8
		c3,0,5-2,5-5v0c0-3-2-5-5-5H290.8z"/>
	<path class="st5" d="M307.9,206.2h12.6v3.3h-8.9v3.4h7.9v3.3h-7.9v3.5h9.1v3.3h-12.7V206.2z"/>
	<path class="st5" d="M326,206.2h3.7v13.3h8.3v3.3h-12V206.2z"/>
	<path class="st5" d="M354.4,209.7l-2.9,0.7l-0.8-3l4.8-1.4h2.5v16.8h-3.6V209.7z"/>
	<path class="st5" d="M363.3,220.2l2.5-2.4c1.1,1.3,2.3,2,4,2c1.4,0,2.4-0.8,2.4-2v0c0-1.4-1.2-2.1-3.3-2.1h-1.5l-0.6-2.3l4-4h-6.5
		v-3.1h11.3v2.8l-4.2,4c2.3,0.4,4.5,1.6,4.5,4.7v0c0,3.1-2.3,5.5-6,5.5C366.8,223.1,364.7,221.9,363.3,220.2z"/>
	<path class="st5" d="M396.3,206h3.4l7.1,16.8H403l-1.5-3.7h-7l-1.5,3.7h-3.7L396.3,206z M400.2,215.8l-2.2-5.4l-2.2,5.4H400.2z"/>
	<path class="st5" d="M411.5,206.2h3.7v13.3h8.3v3.3h-12V206.2z"/>
	<path class="st5" d="M436.9,219.9l5.5-4.5c2.1-1.7,2.9-2.6,2.9-4c0-1.4-0.9-2.2-2.2-2.2c-1.3,0-2.2,0.7-3.4,2.2l-2.6-2.1
		c1.6-2.2,3.2-3.5,6.2-3.5c3.5,0,5.7,2,5.7,5.1v0c0,2.8-1.4,4.2-4.4,6.5l-2.7,2.1h7.3v3.2h-12.3V219.9z"/>
	<path class="st5" d="M453.9,219.9l5.5-4.5c2.1-1.7,2.9-2.6,2.9-4c0-1.4-0.9-2.2-2.2-2.2c-1.3,0-2.2,0.7-3.4,2.2l-2.6-2.1
		c1.6-2.2,3.2-3.5,6.2-3.5c3.5,0,5.7,2,5.7,5.1v0c0,2.8-1.4,4.2-4.4,6.5l-2.7,2.1h7.3v3.2h-12.3V219.9z"/>
	<path class="st5" d="M481,206.2h6.5c5.2,0,8.9,3.6,8.9,8.3v0c0,4.7-3.6,8.3-8.9,8.3H481V206.2z M484.6,209.5v10.1h2.8c3,0,5-2,5-5
		v0c0-3-2-5-5-5H484.6z"/>
	<path class="st5" d="M501.8,206.2h12.6v3.3h-8.9v3.4h7.9v3.3h-7.9v3.5h9.1v3.3h-12.7V206.2z"/>
	<path class="st5" d="M527.5,220.6l2.3-2.6c1,1,1.9,1.7,3,1.7c1.4,0,2.2-0.8,2.2-2.8v-10.7h3.8v10.9c0,2-0.6,3.5-1.6,4.5
		c-1,1-2.5,1.5-4.3,1.5C530.3,223.1,528.6,221.9,527.5,220.6z"/>
	<path class="st5" d="M544.5,215.7v-9.5h3.7v9.4c0,2.7,1.4,4.1,3.6,4.1c2.2,0,3.6-1.4,3.6-4v-9.6h3.7v9.4c0,5-2.8,7.5-7.3,7.5
		C547.2,223.1,544.5,220.6,544.5,215.7z"/>
	<path class="st5" d="M564.9,206.2h3.4l7.8,10.3v-10.3h3.6v16.7h-3.1l-8.1-10.6v10.6h-3.6V206.2z"/>
	<path class="st5" d="M586,206.2h3.7v16.7H586V206.2z"/>
	<path class="st5" d="M595.3,214.5L595.3,214.5c0-4.8,3.7-8.7,8.9-8.7c5.1,0,8.8,3.8,8.8,8.6v0c0,4.7-3.7,8.6-8.9,8.6
		C598.9,223.1,595.3,219.3,595.3,214.5z M609.1,214.5L609.1,214.5c0-2.9-2.1-5.3-5-5.3c-3,0-5,2.3-5,5.2v0c0,2.9,2.1,5.2,5,5.2
		C607.1,219.7,609.1,217.4,609.1,214.5z"/>
</g>
<g>
	<path class="st6" d="M161.4,68.2h7.2c1.4,0,2.8,0.2,4,0.7c1.2,0.5,2.2,1.1,3.1,1.9c0.9,0.8,1.5,1.8,2,2.9s0.7,2.3,0.7,3.6v0.1
		c0,1.3-0.2,2.5-0.7,3.6c-0.5,1.1-1.1,2.1-2,2.9c-0.9,0.8-1.9,1.5-3.1,1.9c-1.2,0.5-2.5,0.7-4,0.7h-7.2V68.2z M168.6,83
		c0.8,0,1.6-0.1,2.3-0.4c0.7-0.3,1.3-0.6,1.7-1.1c0.5-0.5,0.9-1.1,1.1-1.7c0.3-0.7,0.4-1.4,0.4-2.2v-0.1c0-0.8-0.1-1.6-0.4-2.2
		c-0.3-0.7-0.6-1.3-1.1-1.8c-0.5-0.5-1.1-0.9-1.7-1.1c-0.7-0.3-1.4-0.4-2.3-0.4h-3.1V83H168.6z"/>
	<path class="st6" d="M182,68.2h13.9v3.6H186v3.7h8.7v3.6H186V83h10v3.6h-14V68.2z"/>
	<path class="st6" d="M199.6,68.2h4.1V83h9.2v3.7h-13.2V68.2z"/>
	<path class="st6" d="M222.9,83.4l6.1-5c0.6-0.5,1.1-0.9,1.5-1.3c0.4-0.4,0.7-0.7,1-1.1s0.4-0.7,0.6-1c0.1-0.3,0.2-0.7,0.2-1.1
		c0-0.8-0.2-1.4-0.7-1.8s-1.1-0.6-1.8-0.6c-0.7,0-1.4,0.2-1.9,0.6c-0.6,0.4-1.2,1-1.9,1.9l-2.8-2.3c0.5-0.6,0.9-1.2,1.4-1.6
		c0.5-0.5,1-0.9,1.5-1.2c0.5-0.3,1.1-0.6,1.8-0.7c0.6-0.2,1.4-0.3,2.2-0.3c0.9,0,1.8,0.1,2.6,0.4c0.8,0.3,1.4,0.7,2,1.1
		s1,1.1,1.3,1.8c0.3,0.7,0.5,1.5,0.5,2.3v0.1c0,0.8-0.1,1.5-0.3,2.1c-0.2,0.6-0.5,1.2-0.9,1.7s-0.9,1.1-1.5,1.6s-1.3,1.1-2.1,1.7
		l-3,2.3h8v3.5h-13.6V83.4z"/>
	<path class="st6" d="M245.9,87c-1.4,0-2.5-0.2-3.4-0.6c-0.9-0.4-1.8-0.9-2.6-1.6l2.1-3.1c0.7,0.5,1.3,0.9,1.9,1.2
		c0.6,0.3,1.3,0.4,2.1,0.4c1.1,0,2-0.4,2.6-1.2c0.6-0.8,1-1.8,1.1-3c-0.5,0.4-1,0.7-1.6,0.9c-0.6,0.2-1.3,0.3-2.1,0.3
		c-1,0-1.9-0.1-2.7-0.4c-0.8-0.3-1.5-0.7-2.1-1.2c-0.6-0.5-1-1.1-1.3-1.9c-0.3-0.7-0.5-1.6-0.5-2.5v-0.1c0-0.9,0.2-1.8,0.5-2.6
		c0.3-0.8,0.8-1.5,1.4-2c0.6-0.6,1.4-1,2.2-1.3c0.9-0.3,1.8-0.5,2.9-0.5c0.6,0,1.2,0,1.7,0.1c0.5,0.1,1,0.2,1.4,0.4
		c0.4,0.2,0.8,0.4,1.2,0.6c0.4,0.3,0.7,0.6,1.1,0.9c0.3,0.3,0.6,0.7,0.9,1.1c0.3,0.4,0.5,0.9,0.7,1.5c0.2,0.6,0.3,1.2,0.4,1.9
		c0.1,0.7,0.2,1.5,0.2,2.4v0.1c0,1.5-0.2,2.9-0.5,4.1c-0.4,1.2-0.9,2.3-1.5,3.2c-0.7,0.9-1.5,1.6-2.5,2.1
		C248.4,86.7,247.2,87,245.9,87z M246.7,77c1,0,1.8-0.3,2.3-0.8c0.6-0.5,0.8-1.2,0.8-2v-0.1c0-0.8-0.3-1.5-0.9-2
		c-0.6-0.5-1.4-0.8-2.4-0.8c-1,0-1.8,0.3-2.3,0.8s-0.8,1.2-0.8,2v0.1c0,0.8,0.3,1.5,0.9,2C244.9,76.7,245.7,77,246.7,77z"/>
	<path class="st6" d="M265.5,68.2h7.2c1.4,0,2.8,0.2,4,0.7c1.2,0.5,2.2,1.1,3.1,1.9c0.9,0.8,1.5,1.8,2,2.9c0.5,1.1,0.7,2.3,0.7,3.6
		v0.1c0,1.3-0.2,2.5-0.7,3.6c-0.5,1.1-1.1,2.1-2,2.9c-0.9,0.8-1.9,1.5-3.1,1.9c-1.2,0.5-2.5,0.7-4,0.7h-7.2V68.2z M272.7,83
		c0.8,0,1.6-0.1,2.3-0.4c0.7-0.3,1.3-0.6,1.7-1.1s0.9-1.1,1.1-1.7c0.3-0.7,0.4-1.4,0.4-2.2v-0.1c0-0.8-0.1-1.6-0.4-2.2
		c-0.3-0.7-0.6-1.3-1.1-1.8s-1.1-0.9-1.7-1.1c-0.7-0.3-1.4-0.4-2.3-0.4h-3.1V83H272.7z"/>
	<path class="st6" d="M286.1,68.2h13.9v3.6h-9.9v3.7h8.7v3.6h-8.7V83h10v3.6h-14V68.2z"/>
	<path class="st6" d="M318.2,86.9c-1.4,0-2.8-0.2-4.1-0.7c-1.4-0.5-2.6-1.2-3.7-2.2l2.4-2.9c0.8,0.7,1.7,1.2,2.6,1.6
		c0.9,0.4,1.9,0.6,2.9,0.6c0.8,0,1.5-0.2,2-0.5c0.5-0.3,0.7-0.7,0.7-1.3v-0.1c0-0.3,0-0.5-0.1-0.7c-0.1-0.2-0.3-0.4-0.6-0.6
		c-0.3-0.2-0.7-0.4-1.1-0.5c-0.5-0.2-1.1-0.4-1.9-0.6c-0.9-0.2-1.8-0.5-2.5-0.8c-0.8-0.3-1.4-0.6-1.9-1s-0.9-0.9-1.2-1.5
		c-0.3-0.6-0.4-1.4-0.4-2.3v-0.1c0-0.8,0.2-1.6,0.5-2.3c0.3-0.7,0.8-1.3,1.3-1.8s1.2-0.9,2-1.1s1.7-0.4,2.6-0.4
		c1.4,0,2.6,0.2,3.7,0.6c1.1,0.4,2.2,1,3.1,1.7l-2.1,3.1c-0.8-0.6-1.6-1-2.4-1.3c-0.8-0.3-1.6-0.5-2.4-0.5c-0.8,0-1.4,0.2-1.8,0.5
		c-0.4,0.3-0.6,0.7-0.6,1.1v0.1c0,0.3,0.1,0.6,0.2,0.8c0.1,0.2,0.3,0.4,0.6,0.6c0.3,0.2,0.7,0.3,1.2,0.5c0.5,0.2,1.2,0.3,2,0.6
		c0.9,0.2,1.8,0.5,2.5,0.8c0.7,0.3,1.3,0.7,1.8,1.1c0.5,0.4,0.9,0.9,1.1,1.5c0.3,0.6,0.4,1.3,0.4,2.1v0.1c0,0.9-0.2,1.7-0.5,2.4
		c-0.3,0.7-0.8,1.3-1.4,1.8c-0.6,0.5-1.3,0.9-2.1,1.1C320.1,86.8,319.2,86.9,318.2,86.9z"/>
	<path class="st6" d="M328.4,68.2h13.9v3.6h-9.9v3.7h8.7v3.6h-8.7V83h10v3.6h-14V68.2z"/>
	<path class="st6" d="M346.1,68.2h7.5c1.1,0,2.1,0.2,3,0.5c0.9,0.3,1.6,0.7,2.2,1.3c0.6,0.6,1.1,1.2,1.4,2c0.3,0.8,0.5,1.6,0.5,2.6
		v0.1c0,1.1-0.2,2-0.6,2.8c-0.4,0.8-0.9,1.5-1.6,2c-0.7,0.5-1.5,1-2.4,1.2c-0.9,0.3-1.9,0.4-2.9,0.4h-3.1v5.5h-4.1V68.2z
		 M353.3,77.5c1,0,1.8-0.3,2.4-0.8c0.6-0.5,0.8-1.2,0.8-2v-0.1c0-0.9-0.3-1.6-0.9-2.1c-0.6-0.5-1.4-0.7-2.4-0.7h-3.1v5.6H353.3z"/>
	<path class="st6" d="M367.9,72h-5.6v-3.7h15.3V72H372v14.7h-4.1V72z"/>
	<path class="st6" d="M380.9,68.2h4.1v18.4h-4.1V68.2z"/>
	<path class="st6" d="M389.5,68.2h13.9v3.6h-9.9v3.7h8.7v3.6h-8.7V83h10v3.6h-14V68.2z"/>
	<path class="st6" d="M407.2,68.2h4.4l4.8,7.8l4.8-7.8h4.4v18.4h-4v-12l-5.2,7.9h-0.1l-5.1-7.8v11.9h-4V68.2z"/>
	<path class="st6" d="M430,68.2h8.5c2.1,0,3.7,0.5,4.8,1.6c0.8,0.8,1.3,1.9,1.3,3.1V73c0,0.5-0.1,1-0.2,1.4
		c-0.1,0.4-0.3,0.8-0.5,1.1c-0.2,0.3-0.5,0.6-0.8,0.9s-0.6,0.5-0.9,0.6c1.1,0.4,1.9,1,2.5,1.6s0.9,1.7,0.9,2.9v0.1
		c0,0.8-0.2,1.6-0.5,2.2c-0.3,0.6-0.8,1.2-1.4,1.6c-0.6,0.4-1.3,0.7-2.2,0.9c-0.8,0.2-1.8,0.3-2.8,0.3H430V68.2z M437.7,75.7
		c0.9,0,1.6-0.2,2.1-0.5c0.5-0.3,0.8-0.8,0.8-1.5v-0.1c0-0.6-0.2-1.1-0.7-1.4c-0.5-0.3-1.1-0.5-2-0.5h-4v3.9H437.7z M438.8,83.1
		c0.9,0,1.6-0.2,2.1-0.5c0.5-0.3,0.8-0.8,0.8-1.5V81c0-0.6-0.2-1.1-0.7-1.5c-0.5-0.4-1.2-0.5-2.3-0.5H434v4.1H438.8z"/>
	<path class="st6" d="M449,68.2h8.4c2.3,0,4.1,0.6,5.4,1.9c1.1,1.1,1.6,2.5,1.6,4.2v0.1c0,1.5-0.4,2.7-1.1,3.6
		c-0.7,0.9-1.7,1.6-2.9,2.1l4.5,6.6h-4.7l-3.9-5.9h-0.1h-3.1v5.9H449V68.2z M457.2,77.2c1,0,1.8-0.2,2.3-0.7
		c0.5-0.5,0.8-1.1,0.8-1.9v-0.1c0-0.9-0.3-1.5-0.8-2c-0.6-0.4-1.3-0.7-2.3-0.7h-4v5.3H457.2z"/>
	<path class="st6" d="M468,68.2h13.9v3.6H472v3.7h8.7v3.6H472V83h10v3.6h-14V68.2z"/>
	<path class="st6" d="M499.9,68.1h3.7l7.9,18.6h-4.2l-1.7-4.1h-7.8l-1.7,4.1H492L499.9,68.1z M504.1,78.9l-2.4-6l-2.4,6H504.1z"/>
	<path class="st6" d="M514.3,68.2h4.1V83h9.2v3.7h-13.2V68.2z"/>
	<path class="st6" d="M544.3,87c-1.5,0-2.8-0.2-3.9-0.7c-1.1-0.5-2.1-1.2-3-2l2.4-2.9c0.7,0.6,1.4,1.1,2.1,1.5
		c0.7,0.4,1.5,0.5,2.3,0.5c0.9,0,1.7-0.2,2.3-0.7c0.6-0.4,0.8-1.1,0.8-1.9v-0.1c0-0.8-0.3-1.4-0.9-1.9c-0.6-0.4-1.4-0.7-2.4-0.7
		c-0.6,0-1.1,0.1-1.6,0.2c-0.5,0.1-1,0.3-1.4,0.5l-2.3-1.6l0.5-9.1h11.3v3.6h-7.9l-0.2,3.2c0.4-0.1,0.7-0.2,1.1-0.2
		c0.4-0.1,0.8-0.1,1.3-0.1c0.9,0,1.7,0.1,2.5,0.3c0.8,0.2,1.5,0.6,2.1,1.1c0.6,0.5,1.1,1.1,1.4,1.8c0.3,0.7,0.5,1.6,0.5,2.7v0.1
		c0,1-0.2,1.9-0.5,2.6c-0.3,0.8-0.8,1.4-1.4,2s-1.3,1-2.2,1.3C546.4,86.8,545.4,87,544.3,87z"/>
	<path class="st6" d="M563,68.2h7.2c1.4,0,2.8,0.2,4,0.7c1.2,0.5,2.2,1.1,3.1,1.9c0.9,0.8,1.5,1.8,2,2.9c0.5,1.1,0.7,2.3,0.7,3.6
		v0.1c0,1.3-0.2,2.5-0.7,3.6c-0.5,1.1-1.1,2.1-2,2.9c-0.9,0.8-1.9,1.5-3.1,1.9c-1.2,0.5-2.5,0.7-4,0.7H563V68.2z M570.2,83
		c0.8,0,1.6-0.1,2.3-0.4c0.7-0.3,1.3-0.6,1.7-1.1s0.9-1.1,1.1-1.7c0.3-0.7,0.4-1.4,0.4-2.2v-0.1c0-0.8-0.1-1.6-0.4-2.2
		c-0.3-0.7-0.6-1.3-1.1-1.8s-1.1-0.9-1.7-1.1c-0.7-0.3-1.4-0.4-2.3-0.4h-3.1V83H570.2z"/>
	<path class="st6" d="M583.6,68.2h13.9v3.6h-9.9v3.7h8.7v3.6h-8.7V83h10v3.6h-14V68.2z"/>
	<path class="st6" d="M618.1,87c-1.4,0-2.7-0.2-3.9-0.7c-1.2-0.5-2.2-1.2-3.1-2c-0.9-0.9-1.5-1.9-2-3s-0.7-2.4-0.7-3.7v-0.1
		c0-1.3,0.2-2.5,0.7-3.7c0.5-1.1,1.2-2.2,2-3c0.9-0.9,1.9-1.6,3.1-2.1c1.2-0.5,2.5-0.7,3.9-0.7s2.7,0.2,3.9,0.7
		c1.2,0.5,2.2,1.2,3.1,2c0.9,0.9,1.5,1.9,2,3c0.5,1.1,0.7,2.4,0.7,3.7v0.1c0,1.3-0.2,2.5-0.7,3.7c-0.5,1.1-1.2,2.2-2,3
		c-0.9,0.9-1.9,1.6-3.1,2.1C620.8,86.7,619.5,87,618.1,87z M618.1,83.2c0.8,0,1.6-0.1,2.2-0.4c0.7-0.3,1.3-0.7,1.7-1.2
		c0.5-0.5,0.9-1.1,1.1-1.8c0.3-0.7,0.4-1.4,0.4-2.2v-0.1c0-0.8-0.1-1.5-0.4-2.2c-0.3-0.7-0.7-1.3-1.2-1.8c-0.5-0.5-1.1-0.9-1.8-1.2
		s-1.4-0.5-2.2-0.5c-0.8,0-1.6,0.1-2.2,0.4c-0.7,0.3-1.3,0.7-1.7,1.2c-0.5,0.5-0.9,1.1-1.1,1.8c-0.3,0.7-0.4,1.4-0.4,2.2v0.1
		c0,0.8,0.1,1.5,0.4,2.2c0.3,0.7,0.7,1.3,1.2,1.8c0.5,0.5,1.1,0.9,1.8,1.2C616.5,83.1,617.3,83.2,618.1,83.2z"/>
	<path class="st6" d="M640.1,87c-1.4,0-2.6-0.2-3.8-0.7c-1.2-0.5-2.2-1.2-3-2c-0.8-0.9-1.5-1.9-2-3c-0.5-1.2-0.7-2.4-0.7-3.7v-0.1
		c0-1.3,0.2-2.5,0.7-3.7c0.5-1.1,1.1-2.2,2-3c0.8-0.9,1.9-1.6,3-2.1c1.2-0.5,2.5-0.7,3.9-0.7c0.9,0,1.6,0.1,2.4,0.2
		c0.7,0.1,1.4,0.3,1.9,0.6c0.6,0.2,1.1,0.5,1.6,0.9c0.5,0.4,0.9,0.7,1.4,1.2l-2.6,3c-0.7-0.6-1.5-1.2-2.2-1.5
		c-0.7-0.4-1.6-0.6-2.5-0.6c-0.8,0-1.5,0.1-2.1,0.4c-0.7,0.3-1.2,0.7-1.7,1.2c-0.5,0.5-0.8,1.1-1.1,1.8c-0.3,0.7-0.4,1.4-0.4,2.2
		v0.1c0,0.8,0.1,1.5,0.4,2.2c0.3,0.7,0.6,1.3,1.1,1.8c0.5,0.5,1,0.9,1.7,1.2c0.7,0.3,1.4,0.5,2.2,0.5c1.1,0,1.9-0.2,2.7-0.6
		c0.7-0.4,1.5-0.9,2.2-1.6l2.6,2.6c-0.5,0.5-1,1-1.5,1.4c-0.5,0.4-1.1,0.7-1.7,1c-0.6,0.3-1.3,0.5-2,0.7C641.8,86.9,641,87,640.1,87
		z"/>
	<path class="st6" d="M655.2,72h-5.6v-3.7h15.3V72h-5.6v14.7h-4.1V72z"/>
	<path class="st6" d="M675.6,86.9c-2.5,0-4.4-0.7-5.8-2.1c-1.4-1.4-2.1-3.4-2.1-6.1V68.2h4.1v10.4c0,1.5,0.4,2.6,1.1,3.4
		c0.7,0.8,1.7,1.1,2.9,1.1s2.2-0.4,2.9-1.1c0.7-0.7,1.1-1.8,1.1-3.3V68.2h4.1v10.4c0,1.4-0.2,2.6-0.6,3.7c-0.4,1-0.9,1.9-1.6,2.6
		c-0.7,0.7-1.6,1.2-2.6,1.6C678,86.8,676.9,86.9,675.6,86.9z"/>
	<path class="st6" d="M687.8,68.2h8.5c2.1,0,3.7,0.5,4.8,1.6c0.8,0.8,1.3,1.9,1.3,3.1V73c0,0.5-0.1,1-0.2,1.4
		c-0.1,0.4-0.3,0.8-0.5,1.1c-0.2,0.3-0.5,0.6-0.8,0.9s-0.6,0.5-0.9,0.6c1.1,0.4,1.9,1,2.5,1.6c0.6,0.7,0.9,1.7,0.9,2.9v0.1
		c0,0.8-0.2,1.6-0.5,2.2c-0.3,0.6-0.8,1.2-1.4,1.6c-0.6,0.4-1.3,0.7-2.2,0.9c-0.8,0.2-1.8,0.3-2.8,0.3h-8.7V68.2z M695.5,75.7
		c0.9,0,1.6-0.2,2.1-0.5c0.5-0.3,0.8-0.8,0.8-1.5v-0.1c0-0.6-0.2-1.1-0.7-1.4c-0.5-0.3-1.1-0.5-2-0.5h-4v3.9H695.5z M696.6,83.1
		c0.9,0,1.6-0.2,2.1-0.5c0.5-0.3,0.8-0.8,0.8-1.5V81c0-0.6-0.2-1.1-0.7-1.5c-0.5-0.4-1.2-0.5-2.3-0.5h-4.7v4.1H696.6z"/>
	<path class="st6" d="M706.8,68.2h8.4c2.3,0,4.1,0.6,5.4,1.9c1.1,1.1,1.6,2.5,1.6,4.2v0.1c0,1.5-0.4,2.7-1.1,3.6
		c-0.7,0.9-1.7,1.6-2.9,2.1l4.5,6.6H718l-3.9-5.9H714h-3.1v5.9h-4.1V68.2z M715,77.2c1,0,1.8-0.2,2.3-0.7c0.5-0.5,0.8-1.1,0.8-1.9
		v-0.1c0-0.9-0.3-1.5-0.8-2c-0.6-0.4-1.3-0.7-2.3-0.7h-4v5.3H715z"/>
	<path class="st6" d="M725.9,68.2h13.9v3.6h-9.9v3.7h8.7v3.6h-8.7V83h10v3.6h-14V68.2z"/>
</g>
<g>
	
		<linearGradient id="SVGID_1_" gradientUnits="userSpaceOnUse" x1="-173.9096" y1="593.4463" x2="-173.3353" y2="593.4463" gradientTransform="matrix(666.973 0 0 -666.973 116046.75 396071.3438)">
		<stop  offset="0" style="stop-color:#C4361A"/>
		<stop  offset="1" style="stop-color:#CE661B"/>
		<stop  offset="1" style="stop-color:#C4BDA5"/>
	</linearGradient>
	<path class="st7" d="M93.7,227.9H57.9v-29.8h107.3v29.8H128v92.4H93.7V227.9z M171.2,259v-0.3c0-35,28.2-63.3,65.8-63.3
		s65.4,28,65.4,63v0.3c0,35-28.2,63.3-65.8,63.3S171.2,294,171.2,259z M266.6,259v-0.4c0-17.9-12.6-33.1-31.4-33.1
		S204,240.6,204,258.3v0.4c0,17.7,12.8,33.1,31.6,33.1C254.1,291.8,266.6,276.7,266.6,259z M318.8,196.6h53.2
		c31.1,0,51.2,16,51.2,43.1v0.4c0,29.2-22.4,44.5-52.9,44.5H353v35.8h-34.3V196.6z M369.3,259.2c11.9,0,19.5-6.6,19.5-16.3v-0.4
		c0-10.6-7.5-16.1-19.6-16.1H353v32.8H369.3z"/>
	<g>
		<path class="st6" d="M86.9,152.1h9.4c8.5,0,14.3,5.8,14.3,13.4v0.1c0,7.6-5.8,13.5-14.3,13.5h-9.4V152.1z M89.9,154.9v21.3h6.3
			c6.8,0,11.2-4.6,11.2-10.6v-0.1c0-6-4.3-10.7-11.2-10.7H89.9z"/>
		<path class="st6" d="M120.4,152.1h19.5v2.8h-16.4v9.2h14.7v2.8h-14.7v9.4h16.6v2.8h-19.7V152.1z"/>
		<path class="st6" d="M147.9,175.1l1.9-2.2c2.8,2.5,5.5,3.8,9.2,3.8c3.6,0,6-1.9,6-4.6v-0.1c0-2.5-1.3-3.9-7-5.1
			c-6.2-1.3-9-3.3-9-7.8v-0.1c0-4.2,3.7-7.4,8.9-7.4c3.9,0,6.7,1.1,9.5,3.3l-1.8,2.3c-2.5-2-5-2.9-7.8-2.9c-3.5,0-5.7,1.9-5.7,4.3
			v0.1c0,2.5,1.4,4,7.3,5.2c6,1.3,8.8,3.5,8.8,7.6v0.1c0,4.6-3.8,7.6-9.2,7.6C154.6,179.5,151.1,178,147.9,175.1z"/>
		<path class="st6" d="M176.6,165.7L176.6,165.7c0-7.7,5.7-14,13.6-14c4.9,0,7.8,1.7,10.5,4.3l-2.1,2.2c-2.3-2.2-4.8-3.7-8.5-3.7
			c-6,0-10.4,4.8-10.4,11v0.1c0,6.2,4.5,11.1,10.4,11.1c3.7,0,6.1-1.4,8.7-3.9l2,2c-2.8,2.8-5.9,4.7-10.8,4.7
			C182.3,179.5,176.6,173.4,176.6,165.7z"/>
		<path class="st6" d="M209.2,167.8v-15.7h3v15.5c0,5.8,3.1,9.1,8.2,9.1c5,0,8.1-3,8.1-8.9v-15.7h3v15.4c0,7.9-4.5,11.9-11.2,11.9
			C213.7,179.5,209.2,175.4,209.2,167.8z"/>
		<path class="st6" d="M242.3,152.1h19.5v2.8h-16.4v9.2H260v2.8h-14.7v9.4h16.6v2.8h-19.7V152.1z"/>
		<path class="st6" d="M271.5,152.1h2.8l17,21.6v-21.6h3v26.9h-2.4L274.5,157v22.1h-3V152.1z"/>
		<path class="st6" d="M312.5,154.9h-9v-2.8h21.2v2.8h-9v24.1h-3.1V154.9z"/>
		<path class="st6" d="M330.7,165.7L330.7,165.7c0-7.5,5.6-14,13.8-14c8.2,0,13.7,6.4,13.7,13.9v0.1c0,7.4-5.6,13.9-13.8,13.9
			C336.2,179.5,330.7,173.1,330.7,165.7z M355.1,165.7L355.1,165.7c0-6.2-4.5-11.2-10.6-11.2c-6.2,0-10.5,4.9-10.5,11v0.1
			c0,6.1,4.5,11.1,10.6,11.1C350.7,176.7,355.1,171.8,355.1,165.7z"/>
		<path class="st6" d="M366.1,175.1l1.9-2.2c2.8,2.5,5.5,3.8,9.2,3.8c3.6,0,6-1.9,6-4.6v-0.1c0-2.5-1.3-3.9-7-5.1
			c-6.2-1.3-9-3.3-9-7.8v-0.1c0-4.2,3.7-7.4,8.9-7.4c3.9,0,6.7,1.1,9.5,3.3l-1.8,2.3c-2.5-2-5-2.9-7.8-2.9c-3.5,0-5.7,1.9-5.7,4.3
			v0.1c0,2.5,1.4,4,7.3,5.2c6,1.3,8.8,3.5,8.8,7.6v0.1c0,4.6-3.8,7.6-9.2,7.6C372.9,179.5,369.4,178,366.1,175.1z"/>
	</g>
</g>
<g>
	<g>
		<path class="st6" d="M506.7,242.4h48.6v14.2h-48.6V242.4z"/>
		<path class="st6" d="M559.3,291.4l44.4-39.2c18.7-16.8,25.5-26.2,25.5-38.5c0-14.3-11.4-23.4-24.7-23.4c-14,0-23.1,7.3-32.9,21
			l-10.2-7.4c11-16.4,22.6-26.1,44.1-26.1c22,0,38,14.7,38,34.6v0.4c0,17.8-9.4,28.9-31,47.6l-32.7,29h64.9v12.6h-85.6V291.4z"/>
		<path class="st6" d="M656.1,241.2v-0.4c0-34.3,20.5-63.3,52-63.3c31.5,0,51.4,28.7,51.4,63v0.4c0,34.3-20.3,63.3-51.8,63.3
			C676,304.2,656.1,275.5,656.1,241.2z M745.2,241.2v-0.4c0-26.8-14.7-50.7-37.4-50.7c-22.9,0-37.3,23.4-37.3,50.4v0.4
			c0,26.8,14.7,50.7,37.6,50.7S745.2,268,745.2,241.2z"/>
		<path class="st6" d="M772.5,245v-0.2c0-10.3,6.9-19.4,17.3-19.4c10.2,0,17,9,17,19.2v0.2c0,10.3-6.9,19.4-17.2,19.4
			S772.5,255.2,772.5,245z M779.8,244.6v0.2c0,7.6,4.4,13.3,10.1,13.3c5.8,0,9.8-5.8,9.8-13.1v-0.2c0-7.6-4.5-13.3-10.1-13.3
			C783.6,231.5,779.8,237.5,779.8,244.6z M835.9,226.3h7.7L814.4,266l-26.3,36h-7.8l29.2-39.5L835.9,226.3z M817.2,283.8v-0.2
			c0-10.3,6.9-19.4,17.2-19.4c10.3,0,17,9,17,19.2v0.2c0,10.3-6.8,19.4-17.2,19.4C824,302.9,817.2,294,817.2,283.8z M844.3,283.8
			v-0.2c0-7.6-4.4-13.3-10.1-13.3c-5.8,0-9.8,6-9.8,13.1v0.2c0,7.6,4.4,13.3,10.1,13.3C840.4,296.9,844.3,291,844.3,283.8z"/>
	</g>
	<g>
		<path class="st6" d="M473.8,217.6h1.8v7.1h9.2v-7.1h1.8v15.9h-1.8v-7.2h-9.2v7.2h-1.8V217.6z"/>
		<path class="st6" d="M498.2,217.4h1.7l7.3,16h-1.9l-1.9-4.2h-8.7l-1.9,4.2h-1.8L498.2,217.4z M502.6,227.6l-3.6-8.1l-3.6,8.1
			H502.6z"/>
		<path class="st6" d="M510,231.2l1.1-1.3c1.7,1.5,3.3,2.3,5.5,2.3c2.1,0,3.6-1.1,3.6-2.7v0c0-1.5-0.8-2.3-4.1-3
			c-3.7-0.8-5.3-2-5.3-4.6v0c0-2.5,2.2-4.3,5.2-4.3c2.3,0,4,0.7,5.6,2l-1,1.4c-1.5-1.2-3-1.7-4.6-1.7c-2.1,0-3.4,1.1-3.4,2.6v0
			c0,1.5,0.8,2.3,4.3,3.1c3.6,0.8,5.2,2.1,5.2,4.5v0c0,2.7-2.3,4.5-5.4,4.5C514,233.7,511.9,232.9,510,231.2z"/>
		<path class="st6" d="M530.6,219.2h-5.3v-1.7h12.5v1.7h-5.3v14.3h-1.8V219.2z"/>
		<path class="st6" d="M546.2,217.4h1.7l7.3,16h-1.9l-1.9-4.2h-8.7l-1.9,4.2h-1.8L546.2,217.4z M550.6,227.6l-3.6-8.1l-3.6,8.1
			H550.6z"/>
	</g>
</g>
<g>
	<text transform="matrix(1 0 0 1 547.7756 -166.1001)"><tspan x="0" y="0" class="st6" style="font-family:'Gotham-Book'; font-size:176.6873px; letter-spacing:-15;">-</tspan><tspan x="56.2" y="0" class="st6" style="font-family:'Gotham-Book'; font-size:176.6873px; letter-spacing:-10;">2</tspan><tspan x="151.4" y="0" class="st6" style="font-family:'Gotham-Book'; font-size:176.6873px; letter-spacing:-3;">0</tspan><tspan x="274.2" y="0" class="st6" style="font-family:'Gotham-Book'; font-size:109.2722px; letter-spacing:17;">%</tspan></text>
	
		<text transform="matrix(1 0 0 1 522.4875 -235.3442)" class="st6" style="font-family:'Gotham-Book'; font-size:22.975px; letter-spacing:1;">HASTA</text>
</g>
</svg>
