<?xml version="1.0" encoding="utf-8"?>
<!-- Generator: Adobe Illustrator 25.4.6, SVG Export Plug-In . SVG Version: 6.00 Build 0)  -->
<!DOCTYPE svg PUBLIC "-//W3C//DTD SVG 1.1//EN" "http://www.w3.org/Graphics/SVG/1.1/DTD/svg11.dtd" [
	<!ENTITY ns_extend "http://ns.adobe.com/Extensibility/1.0/">
	<!ENTITY ns_ai "http://ns.adobe.com/AdobeIllustrator/10.0/">
	<!ENTITY ns_graphs "http://ns.adobe.com/Graphs/1.0/">
	<!ENTITY ns_vars "http://ns.adobe.com/Variables/1.0/">
	<!ENTITY ns_imrep "http://ns.adobe.com/ImageReplacement/1.0/">
	<!ENTITY ns_sfw "http://ns.adobe.com/SaveForWeb/1.0/">
	<!ENTITY ns_custom "http://ns.adobe.com/GenericCustomNamespace/1.0/">
	<!ENTITY ns_adobe_xpath "http://ns.adobe.com/XPath/1.0/">
]>
<svg version="1.1" xmlns:x="&ns_extend;" xmlns:i="&ns_ai;" xmlns:graph="&ns_graphs;"
	 xmlns="http://www.w3.org/2000/svg" xmlns:xlink="http://www.w3.org/1999/xlink" x="0px" y="0px" viewBox="0 0 650 100"
	 style="enable-background:new 0 0 650 100;" xml:space="preserve">
<style type="text/css">
	.st0{display:none;}
	.st1{fill:none;stroke:#4D4D4D;stroke-width:0.5;stroke-miterlimit:10;}
	.st2{fill:none;stroke:#028C38;stroke-width:4;stroke-linecap:round;}
	.st3{fill:none;stroke:#028C38;stroke-width:4;}
</style>
<metadata>
	<sfw  xmlns="&ns_sfw;">
		<slices></slices>
		<sliceSourceBounds  bottomLeftOrigin="true" height="251.5" width="990" x="-45" y="-240.8"></sliceSourceBounds>
	</sfw>
</metadata>
<g id="Capa_1" class="st0">
</g>
<g id="Capa_2">
	<text transform="matrix(1 0 0 1 120.2837 218.8398)" class="st0"><tspan x="0" y="0" style="display:inline; font-family:'Gotham-Book'; font-size:29.3093px;">DEVOLUCIÓN </tspan><tspan x="216.9" y="0.9" style="display:inline; font-family:'Gotham-Bold'; font-size:31.1315px;">GRATIS</tspan><tspan x="338.9" y="0" style="display:inline; font-family:'Gotham-Book'; font-size:29.3093px;"> EN TIENDA</tspan></text>
	<text transform="matrix(1 0 0 1 215.2344 245.9434)" class="st0" style="font-family:'Gotham-Book'; font-size:19.8883px;">(Excepto mercancía voluminosa)</text>
	<line class="st1" x1="0.5" y1="-0.5" x2="650.5" y2="-0.5"/>
	<line class="st1" x1="1" y1="98.5" x2="651" y2="98.5"/>
	<line class="st1" x1="1" y1="0.5" x2="651" y2="0.5"/>
	<g>
		<path d="M234.9,28.2h14.8v2.1h-12.5v7h11.2v2.1h-11.2v7.2h12.7v2.1h-15V28.2z"/>
		<path d="M254.5,28.2h2.2l12.9,16.4V28.2h2.3v20.5H270l-13.2-16.8v16.8h-2.3V28.2z"/>
		<path d="M283.1,30.4h-6.9v-2.1h16.1v2.1h-6.9v18.4h-2.3V30.4z"/>
		<path d="M296.7,28.2h8.8c2.5,0,4.5,0.8,5.8,2.1c1,1,1.6,2.4,1.6,4v0.1c0,3.4-2.3,5.4-5.6,6l6.3,8.4h-2.8l-6-8H299v8h-2.3V28.2z
			 M305.3,38.7c3.1,0,5.3-1.6,5.3-4.2v-0.1c0-2.5-1.9-4-5.2-4H299v8.3H305.3z"/>
		<path d="M317.9,28.2h14.8v2.1h-12.5v7h11.2v2.1h-11.2v7.2h12.7v2.1h-15V28.2z"/>
		<path d="M336.6,38.5L336.6,38.5c0-5.7,4.1-10.7,10.3-10.7c3.5,0,5.6,1,7.7,2.7l-1.5,1.8c-1.6-1.4-3.3-2.3-6.2-2.3
			c-4.5,0-7.8,3.8-7.8,8.4v0.1c0,4.9,3.1,8.5,8.1,8.5c2.3,0,4.5-0.9,5.9-2.1v-5.1h-6.2v-2.1h8.5V46c-1.9,1.7-4.8,3.1-8.2,3.1
			C340.6,49.1,336.6,44.4,336.6,38.5z"/>
		<path d="M368.1,28.1h2.2l9.4,20.7h-2.5l-2.4-5.4h-11.2l-2.4,5.4h-2.4L368.1,28.1z M373.8,41.2l-4.7-10.4l-4.7,10.4H373.8z"/>
		<path d="M392.4,28.2h14.8v2.1h-12.5v7H406v2.1h-11.2v7.2h12.7v2.1h-15V28.2z"/>
		<path d="M412.1,28.2h2.2l12.9,16.4V28.2h2.3v20.5h-1.8l-13.2-16.8v16.8h-2.3V28.2z"/>
		<path d="M444,28.2h14.8v2.1h-12.5v7h11.2v2.1h-11.2v7.2H459v2.1h-15V28.2z"/>
		<path d="M463.7,28.2h2.3v18.4h11.5v2.1h-13.9V28.2z"/>
		<path d="M490.3,27.9h8.5c6.8,0,11.6,4.7,11.6,10.8v0.1c0,6.1-4.7,10.9-11.6,10.9h-8.5V27.9z M495.1,32.2v13.1h3.7
			c3.9,0,6.6-2.6,6.6-6.5v-0.1c0-3.9-2.6-6.6-6.6-6.6H495.1z"/>
		<path d="M514.9,27.9h4.8v21.8h-4.8V27.9z M519.1,21.3l4.1,1.8l-4.2,3.1h-3.6L519.1,21.3z"/>
		<path d="M532.6,27.7h4.4l9.3,21.9h-5l-2-4.9h-9.2l-2,4.9h-4.9L532.6,27.7z M537.6,40.6l-2.9-7.1l-2.9,7.1H537.6z"/>
	</g>
	<g>
		<path d="M160.5,61.9h10.1v1.4H162v4.8h7.6v1.4H162v4.9h8.6v1.4h-10.2V61.9z"/>
		<path d="M173.7,61.3h1.5v14.5h-1.5V61.3z"/>
		<path d="M178.8,61.6h1.7v1.7h-1.7V61.6z M178.9,65.6h1.5v10.3h-1.5V65.6z"/>
		<path d="M183.9,77.6l0.7-1.2c1.2,0.9,2.5,1.3,4,1.3c2.3,0,3.7-1.3,3.7-3.7v-1.2c-0.9,1.2-2.1,2.2-4,2.2c-2.5,0-4.8-1.8-4.8-4.8v0
			c0-3,2.4-4.9,4.8-4.9c1.9,0,3.2,1,4,2.1v-1.8h1.5v8.5c0,1.6-0.5,2.8-1.3,3.6c-0.9,0.9-2.3,1.4-3.9,1.4
			C186.8,79.1,185.2,78.6,183.9,77.6z M192.3,70.2L192.3,70.2c0-2.1-1.8-3.5-3.8-3.5c-1.9,0-3.6,1.4-3.6,3.5v0
			c0,2.1,1.7,3.5,3.6,3.5C190.5,73.7,192.3,72.3,192.3,70.2z"/>
		<path d="M196.6,70.7L196.6,70.7c0-3,2.1-5.4,4.9-5.4c3,0,4.8,2.4,4.8,5.4c0,0.2,0,0.3,0,0.5h-8.2c0.2,2.2,1.8,3.5,3.6,3.5
			c1.4,0,2.4-0.6,3.2-1.5l1,0.9c-1,1.2-2.3,1.9-4.2,1.9C198.9,76.1,196.6,73.9,196.6,70.7z M204.7,70.1c-0.2-1.9-1.2-3.5-3.3-3.5
			c-1.8,0-3.1,1.5-3.3,3.5H204.7z"/>
		<path d="M215.1,61.3h1.5v14.5h-1.5V61.3z"/>
		<path d="M219.4,72.9L219.4,72.9c0-2.2,1.8-3.4,4.4-3.4c1.3,0,2.2,0.2,3.2,0.4v-0.4c0-1.8-1.1-2.8-3.1-2.8c-1.2,0-2.2,0.3-3.1,0.8
			l-0.5-1.3c1.1-0.5,2.2-0.9,3.7-0.9c1.5,0,2.6,0.4,3.3,1.1c0.7,0.7,1.1,1.7,1.1,3v6.3h-1.5v-1.6c-0.7,0.9-1.9,1.8-3.7,1.8
			C221.3,76.1,219.4,75,219.4,72.9z M227,72.1v-1c-0.8-0.2-1.8-0.4-3-0.4c-1.9,0-3,0.8-3,2.1v0c0,1.3,1.2,2,2.6,2
			C225.4,74.9,227,73.7,227,72.1z"/>
		<path d="M237.6,61.3h1.5v6c0.7-1.1,1.7-2,3.5-2c2.5,0,3.9,1.7,3.9,4.1v6.4h-1.5v-6c0-1.9-1-3.1-2.8-3.1c-1.8,0-3.1,1.3-3.1,3.2
			v5.9h-1.5V61.3z"/>
		<path d="M249.3,70.8L249.3,70.8c0-2.9,2.3-5.4,5.4-5.4c3.1,0,5.3,2.4,5.3,5.3v0c0,2.9-2.3,5.4-5.4,5.4
			C251.5,76.1,249.3,73.7,249.3,70.8z M258.4,70.8L258.4,70.8c0-2.2-1.6-4.1-3.8-4.1c-2.2,0-3.8,1.8-3.8,4v0c0,2.2,1.6,4,3.8,4
			C256.9,74.7,258.4,72.9,258.4,70.8z"/>
		<path d="M262.7,65.6h1.5v2.7c0.8-1.7,2.2-2.9,4.2-2.9V67h-0.1c-2.2,0-4.1,1.6-4.1,4.7v4.1h-1.5V65.6z"/>
		<path d="M269.5,72.9L269.5,72.9c0-2.2,1.8-3.4,4.4-3.4c1.3,0,2.2,0.2,3.2,0.4v-0.4c0-1.8-1.1-2.8-3.1-2.8c-1.2,0-2.2,0.3-3.1,0.8
			l-0.5-1.3c1.1-0.5,2.2-0.9,3.7-0.9c1.5,0,2.6,0.4,3.3,1.1c0.7,0.7,1.1,1.7,1.1,3v6.3h-1.5v-1.6c-0.7,0.9-1.9,1.8-3.7,1.8
			C271.5,76.1,269.5,75,269.5,72.9z M277.1,72.1v-1c-0.8-0.2-1.8-0.4-3-0.4c-1.9,0-3,0.8-3,2.1v0c0,1.3,1.2,2,2.6,2
			C275.6,74.9,277.1,73.7,277.1,72.1z"/>
		<path d="M296,73.8c-0.8,1.2-2,2.3-3.9,2.3c-2.5,0-4.9-1.9-4.9-5.3v0c0-3.4,2.4-5.3,4.9-5.3c1.9,0,3.1,1,3.9,2.2v-2h1.5V79H296
			V73.8z M296.1,70.7L296.1,70.7c0-2.4-1.8-4-3.7-4c-2,0-3.6,1.5-3.6,4v0c0,2.4,1.7,4,3.6,4C294.3,74.7,296.1,73.1,296.1,70.7z"/>
		<path d="M300.8,72v-6.4h1.5v6c0,1.9,1,3.1,2.8,3.1c1.7,0,3.1-1.3,3.1-3.2v-5.9h1.5v10.3h-1.5v-1.8c-0.7,1.1-1.8,2-3.5,2
			C302.3,76.1,300.8,74.4,300.8,72z"/>
		<path d="M312.6,70.7L312.6,70.7c0-3,2.1-5.4,4.9-5.4c3,0,4.8,2.4,4.8,5.4c0,0.2,0,0.3,0,0.5h-8.2c0.2,2.2,1.8,3.5,3.6,3.5
			c1.4,0,2.4-0.6,3.2-1.5l1,0.9c-1,1.2-2.3,1.9-4.2,1.9C314.9,76.1,312.6,73.9,312.6,70.7z M320.8,70.1c-0.2-1.9-1.2-3.5-3.3-3.5
			c-1.8,0-3.1,1.5-3.3,3.5H320.8z"/>
		<path d="M339.2,73.8c-0.8,1.2-2,2.3-3.9,2.3c-2.5,0-4.9-1.9-4.9-5.3v0c0-3.4,2.4-5.3,4.9-5.3c1.9,0,3.1,1,3.9,2.2v-2h1.5V79h-1.5
			V73.8z M339.3,70.7L339.3,70.7c0-2.4-1.8-4-3.7-4c-2,0-3.6,1.5-3.6,4v0c0,2.4,1.7,4,3.6,4C337.5,74.7,339.3,73.1,339.3,70.7z"/>
		<path d="M344,72v-6.4h1.5v6c0,1.9,1,3.1,2.8,3.1c1.8,0,3.1-1.3,3.1-3.2v-5.9h1.5v10.3h-1.5v-1.8c-0.7,1.1-1.8,2-3.5,2
			C345.5,76.1,344,74.4,344,72z"/>
		<path d="M356.5,61.6h1.7v1.7h-1.7V61.6z M356.6,65.6h1.5v10.3h-1.5V65.6z"/>
		<path d="M361,70.7L361,70.7c0-3,2.1-5.4,4.9-5.4c3,0,4.8,2.4,4.8,5.4c0,0.2,0,0.3,0,0.5h-8.2c0.2,2.2,1.8,3.5,3.6,3.5
			c1.4,0,2.4-0.6,3.2-1.5l1,0.9c-1,1.2-2.3,1.9-4.2,1.9C363.3,76.1,361,73.9,361,70.7z M369.2,70.1c-0.2-1.9-1.2-3.5-3.3-3.5
			c-1.8,0-3.1,1.5-3.3,3.5H369.2z"/>
		<path d="M373.4,65.6h1.5v2.7c0.8-1.7,2.2-2.9,4.2-2.9V67h-0.1c-2.2,0-4.1,1.6-4.1,4.7v4.1h-1.5V65.6z"/>
		<path d="M380.2,72.9L380.2,72.9c0-2.2,1.8-3.4,4.4-3.4c1.3,0,2.2,0.2,3.2,0.4v-0.4c0-1.8-1.1-2.8-3.1-2.8c-1.2,0-2.2,0.3-3.1,0.8
			l-0.5-1.3c1.1-0.5,2.2-0.9,3.7-0.9c1.5,0,2.6,0.4,3.3,1.1c0.7,0.7,1.1,1.7,1.1,3v6.3h-1.5v-1.6c-0.7,0.9-1.9,1.8-3.7,1.8
			C382.2,76.1,380.2,75,380.2,72.9z M387.8,72.1v-1c-0.8-0.2-1.8-0.4-3-0.4c-1.9,0-3,0.8-3,2.1v0c0,1.3,1.2,2,2.6,2
			C386.3,74.9,387.8,73.7,387.8,72.1z"/>
		<path d="M391.7,74.5l0.8-1.1c1.1,0.8,2.3,1.3,3.6,1.3c1.2,0,2.1-0.6,2.1-1.6v0c0-1-1.2-1.4-2.6-1.8c-1.6-0.5-3.4-1-3.4-2.9v0
			c0-1.8,1.5-2.9,3.5-2.9c1.3,0,2.6,0.4,3.7,1.1l-0.7,1.2c-1-0.6-2-1-3-1c-1.2,0-2,0.6-2,1.5v0c0,1,1.3,1.4,2.6,1.8
			c1.6,0.5,3.3,1.1,3.3,2.9v0c0,1.9-1.6,3.1-3.7,3.1C394.4,76.1,392.8,75.5,391.7,74.5z"/>
		<path d="M408.4,65.6h1.5v2.1c0.8-1.2,2-2.3,3.9-2.3c2.5,0,4.9,1.9,4.9,5.3v0c0,3.4-2.4,5.3-4.9,5.3c-1.9,0-3.1-1-3.9-2.2V79h-1.5
			V65.6z M417.2,70.7L417.2,70.7c0-2.5-1.7-4-3.6-4c-1.9,0-3.7,1.6-3.7,4v0c0,2.4,1.8,4,3.7,4C415.6,74.7,417.2,73.2,417.2,70.7z"/>
		<path d="M420.8,72.9L420.8,72.9c0-2.2,1.8-3.4,4.4-3.4c1.3,0,2.2,0.2,3.2,0.4v-0.4c0-1.8-1.1-2.8-3.1-2.8c-1.2,0-2.2,0.3-3.1,0.8
			l-0.5-1.3c1.1-0.5,2.2-0.9,3.7-0.9c1.5,0,2.6,0.4,3.3,1.1c0.7,0.7,1.1,1.7,1.1,3v6.3h-1.5v-1.6c-0.7,0.9-1.9,1.8-3.7,1.8
			C422.7,76.1,420.8,75,420.8,72.9z M428.4,72.1v-1c-0.8-0.2-1.8-0.4-3-0.4c-1.9,0-3,0.8-3,2.1v0c0,1.3,1.2,2,2.6,2
			C426.8,74.9,428.4,73.7,428.4,72.1z"/>
		<path d="M433.1,65.6h1.5v2.7c0.8-1.7,2.2-2.9,4.2-2.9V67h-0.1c-2.2,0-4.1,1.6-4.1,4.7v4.1h-1.5V65.6z"/>
		<path d="M439.9,72.9L439.9,72.9c0-2.2,1.8-3.4,4.4-3.4c1.3,0,2.2,0.2,3.2,0.4v-0.4c0-1.8-1.1-2.8-3.1-2.8c-1.2,0-2.2,0.3-3.1,0.8
			l-0.5-1.3c1.1-0.5,2.2-0.9,3.7-0.9c1.5,0,2.6,0.4,3.3,1.1c0.7,0.7,1.1,1.7,1.1,3v6.3h-1.5v-1.6c-0.7,0.9-1.9,1.8-3.7,1.8
			C441.8,76.1,439.9,75,439.9,72.9z M447.5,72.1v-1c-0.8-0.2-1.8-0.4-3-0.4c-1.9,0-3,0.8-3,2.1v0c0,1.3,1.2,2,2.6,2
			C445.9,74.9,447.5,73.7,447.5,72.1z"/>
		<path d="M458.1,65.6h1.5v2.7c0.8-1.7,2.2-2.9,4.2-2.9V67h-0.1c-2.2,0-4.1,1.6-4.1,4.7v4.1h-1.5V65.6z"/>
		<path d="M465.1,70.7L465.1,70.7c0-3,2.1-5.4,4.9-5.4c3,0,4.8,2.4,4.8,5.4c0,0.2,0,0.3,0,0.5h-8.2c0.2,2.2,1.8,3.5,3.6,3.5
			c1.4,0,2.4-0.6,3.2-1.5l1,0.9c-1,1.2-2.3,1.9-4.2,1.9C467.4,76.1,465.1,73.9,465.1,70.7z M473.3,70.1c-0.2-1.9-1.2-3.5-3.3-3.5
			c-1.8,0-3.1,1.5-3.3,3.5H473.3z"/>
		<path d="M476.9,70.8L476.9,70.8c0-2.9,2.3-5.4,5.3-5.4c1.9,0,3.2,0.8,4.1,1.8l-1,1.1c-0.8-0.9-1.7-1.6-3.1-1.6
			c-2.1,0-3.7,1.8-3.7,4v0c0,2.2,1.6,4,3.8,4c1.3,0,2.3-0.7,3.1-1.5l1,0.9c-1,1.2-2.3,2-4.2,2C479.2,76.1,476.9,73.6,476.9,70.8z"/>
		<path d="M488.9,61.6h1.7v1.7h-1.7V61.6z M489,65.6h1.5v10.3H489V65.6z"/>
		<path d="M495.7,73.9v2h-1.5V61.3h1.5v6.3c0.8-1.2,2-2.3,3.9-2.3c2.5,0,4.9,1.9,4.9,5.3v0c0,3.4-2.4,5.3-4.9,5.3
			C497.7,76.1,496.5,75,495.7,73.9z M502.9,70.7L502.9,70.7c0-2.5-1.7-4-3.6-4c-1.9,0-3.7,1.6-3.7,4v0c0,2.4,1.8,4,3.7,4
			C501.3,74.7,502.9,73.2,502.9,70.7z"/>
		<path d="M507.4,61.6h1.7v1.7h-1.7V61.6z M507.5,65.6h1.5v10.3h-1.5V65.6z"/>
		<path d="M512.6,65.6h1.5v2.7c0.8-1.7,2.2-2.9,4.2-2.9V67h-0.1c-2.2,0-4.1,1.6-4.1,4.7v4.1h-1.5V65.6z"/>
		<path d="M527.1,73.1v-6.2h-1.4v-1.4h1.4v-3.1h1.5v3.1h3.3v1.4h-3.3v6c0,1.3,0.7,1.7,1.7,1.7c0.5,0,1-0.1,1.5-0.4v1.3
			c-0.5,0.3-1.1,0.4-1.8,0.4C528.4,76,527.1,75.2,527.1,73.1z"/>
		<path d="M534.5,72v-6.4h1.5v6c0,1.9,1,3.1,2.8,3.1c1.8,0,3.1-1.3,3.1-3.2v-5.9h1.5v10.3h-1.5v-1.8c-0.7,1.1-1.8,2-3.5,2
			C535.9,76.1,534.5,74.4,534.5,72z"/>
		<path d="M552.8,65.6h1.5v2.1c0.8-1.2,2-2.3,3.9-2.3c2.5,0,4.9,1.9,4.9,5.3v0c0,3.4-2.4,5.3-4.9,5.3c-1.9,0-3.1-1-3.9-2.2V79h-1.5
			V65.6z M561.6,70.7L561.6,70.7c0-2.5-1.7-4-3.6-4c-1.9,0-3.7,1.6-3.7,4v0c0,2.4,1.8,4,3.7,4C560,74.7,561.6,73.2,561.6,70.7z"/>
		<path d="M565.4,70.7L565.4,70.7c0-3,2.1-5.4,4.9-5.4c3,0,4.8,2.4,4.8,5.4c0,0.2,0,0.3,0,0.5H567c0.2,2.2,1.8,3.5,3.6,3.5
			c1.4,0,2.4-0.6,3.2-1.5l1,0.9c-1,1.2-2.3,1.9-4.2,1.9C567.7,76.1,565.4,73.9,565.4,70.7z M573.6,70.1c-0.2-1.9-1.2-3.5-3.3-3.5
			c-1.8,0-3.1,1.5-3.3,3.5H573.6z"/>
		<path d="M577.2,70.7L577.2,70.7c0-3.4,2.4-5.4,4.9-5.4c1.9,0,3.1,1,3.9,2.2v-6.2h1.5v14.5h-1.5v-2.1c-0.8,1.2-2,2.3-3.9,2.3
			C579.7,76.1,577.2,74.1,577.2,70.7z M586.1,70.7L586.1,70.7c0-2.4-1.8-4-3.7-4c-2,0-3.6,1.5-3.6,4v0c0,2.4,1.7,4,3.6,4
			C584.3,74.7,586.1,73.1,586.1,70.7z"/>
		<path d="M591.1,61.6h1.7v1.7h-1.7V61.6z M591.2,65.6h1.5v10.3h-1.5V65.6z"/>
		<path d="M595.7,70.7L595.7,70.7c0-3.4,2.4-5.4,4.9-5.4c1.9,0,3.1,1,3.9,2.2v-6.2h1.5v14.5h-1.5v-2.1c-0.8,1.2-2,2.3-3.9,2.3
			C598.1,76.1,595.7,74.1,595.7,70.7z M604.6,70.7L604.6,70.7c0-2.4-1.8-4-3.7-4c-2,0-3.6,1.5-3.6,4v0c0,2.4,1.7,4,3.6,4
			C602.8,74.7,604.6,73.1,604.6,70.7z"/>
		<path d="M608.8,70.8L608.8,70.8c0-2.9,2.3-5.4,5.4-5.4c3.1,0,5.3,2.4,5.3,5.3v0c0,2.9-2.3,5.4-5.4,5.4
			C611.1,76.1,608.8,73.7,608.8,70.8z M618,70.8L618,70.8c0-2.2-1.7-4.1-3.8-4.1c-2.2,0-3.8,1.8-3.8,4v0c0,2.2,1.6,4,3.8,4
			C616.4,74.7,618,72.9,618,70.8z"/>
	</g>
	<g>
		<line class="st2" x1="48.7" y1="73.9" x2="55.9" y2="73.9"/>
		<line class="st2" x1="48.7" y1="45.6" x2="71.9" y2="45.6"/>
		<line class="st2" x1="59.7" y1="34.5" x2="82.9" y2="34.5"/>
		<circle class="st3" cx="64.3" cy="73.9" r="8.3"/>
		<circle class="st3" cx="112.5" cy="73.9" r="8.3"/>
		<polyline class="st2" points="73.1,73.9 98,73.9 98,23.4 72.8,23.4 		"/>
		<line class="st3" x1="98.7" y1="73.9" x2="104.4" y2="73.9"/>
		<polyline class="st3" points="98.7,37.2 111.8,37.2 120.5,48.5 		"/>
		<path class="st3" d="M120.8,73.9h3c0,0,3.5,0.4,3.5-3V57.2c0,0,0.1-8.5-9.1-8.5h-12.2V37.2"/>
	</g>
</g>
</svg>
