<?xml version="1.0" encoding="utf-8"?>
<!-- Generator: Adobe Illustrator 25.4.4, SVG Export Plug-In . SVG Version: 6.00 Build 0)  -->
<svg version="1.1" id="Capa_2" xmlns="http://www.w3.org/2000/svg" xmlns:xlink="http://www.w3.org/1999/xlink" x="0px" y="0px"
	 viewBox="0 0 800 800" style="enable-background:new 0 0 800 800;" xml:space="preserve">
<style type="text/css">
	.st0{fill:#00862D;}
	.st1{fill:none;stroke:#CCCCCC;stroke-miterlimit:10;}
</style>
<g>
	<path d="M355.8,255.3c-3.3-3.4-3.6-8.5-0.5-11.5c1.2-1.2,3.5-2,4.8-2c2.1,0,3.7,1.1,4.7,1.9l0.2-0.1l42.3,39.1l88.7-110.3l0,0
		c1-1,3.5-1.8,5.7-1.8c1.4,0,2.8,0.5,3.9,1.4c1.3,1,2.1,2.5,2.3,4.1c0.2,1.6-0.3,3.2-1.3,4.5l-98.8,125L355.8,255.3z"/>
	<path class="st0" d="M470.8,275c-5.8,39-39.5,69-80.1,69c-44.7,0-81-36.3-81-81s36.3-81,81-81c20.5,0,39.3,7.7,53.6,20.3l6.7-6.2
		c-16-14.4-37.1-23.2-60.2-23.2c-49.6,0-90,40.4-90,90s40.4,90,90,90c45.6,0,83.3-34,89.2-78H470.8z"/>
</g>
<g>
	<path d="M219.8,434.4h-8.5v-2.6h19.8v2.6h-8.5v22.6h-2.9V434.4z"/>
	<path d="M237.2,444.4L237.2,444.4c0-7,5.2-13.1,12.9-13.1s12.8,6,12.8,13v0.1c0,6.9-5.2,13-12.9,13S237.2,451.3,237.2,444.4z
		 M260,444.4L260,444.4c0-5.8-4.2-10.5-9.9-10.5s-9.9,4.6-9.9,10.3v0.1c0,5.7,4.2,10.4,9.9,10.4S260,450.1,260,444.4z"/>
	<path d="M272.6,431.7h8.7c7.9,0,13.4,5.4,13.4,12.5v0.1c0,7.1-5.5,12.6-13.4,12.6h-8.7V431.7z M275.4,434.4v19.9h5.9
		c6.4,0,10.4-4.3,10.4-9.9v-0.1c0-5.6-4.1-10-10.4-10H275.4z"/>
	<path d="M312,431.6h2.7l11.5,25.4h-3.1l-3-6.7h-13.7l-3,6.7h-2.9L312,431.6z M319,447.7l-5.7-12.8l-5.8,12.8H319z"/>
	<path d="M332.5,453.3l1.8-2.1c2.6,2.4,5.1,3.6,8.6,3.6c3.4,0,5.6-1.8,5.6-4.3v-0.1c0-2.3-1.3-3.7-6.6-4.8c-5.8-1.3-8.5-3.1-8.5-7.3
		v-0.1c0-4,3.5-6.9,8.3-6.9c3.7,0,6.3,1,8.9,3.1l-1.7,2.2c-2.3-1.9-4.7-2.7-7.3-2.7c-3.3,0-5.4,1.8-5.4,4.1v0.1
		c0,2.4,1.3,3.7,6.8,4.9c5.6,1.2,8.2,3.3,8.2,7.1v0.1c0,4.3-3.6,7.1-8.6,7.1C338.8,457.3,335.6,456,332.5,453.3z"/>
	<path d="M375.2,431.7h2.7l15.9,20.2v-20.2h2.8v25.2h-2.3L378,436.3v20.7h-2.8V431.7z"/>
	<path d="M406.9,446.4v-14.7h2.8v14.5c0,5.4,2.9,8.5,7.7,8.5c4.6,0,7.6-2.8,7.6-8.3v-14.7h2.8v14.4c0,7.3-4.2,11.2-10.5,11.2
		C411.1,457.3,406.9,453.5,406.9,446.4z"/>
	<path d="M438.2,431.7h18.2v2.6H441v8.6h13.8v2.6H441v8.8h15.5v2.6h-18.4V431.7z"/>
	<path d="M464.3,453.3l1.8-2.1c2.6,2.4,5.1,3.6,8.6,3.6c3.4,0,5.6-1.8,5.6-4.3v-0.1c0-2.3-1.3-3.7-6.6-4.8c-5.8-1.3-8.5-3.1-8.5-7.3
		v-0.1c0-4,3.5-6.9,8.3-6.9c3.7,0,6.3,1,8.9,3.1l-1.7,2.2c-2.3-1.9-4.7-2.7-7.3-2.7c-3.3,0-5.4,1.8-5.4,4.1v0.1
		c0,2.4,1.3,3.7,6.8,4.9c5.6,1.2,8.2,3.3,8.2,7.1v0.1c0,4.3-3.6,7.1-8.6,7.1C470.6,457.3,467.3,456,464.3,453.3z"/>
	<path d="M498.7,434.4h-8.5v-2.6H510v2.6h-8.5v22.6h-2.9V434.4z"/>
	<path d="M518.9,431.7h10.8c3.1,0,5.6,0.9,7.2,2.5c1.2,1.2,1.9,3,1.9,5v0.1c0,4.2-2.9,6.6-6.8,7.3l7.7,10.3h-3.5l-7.3-9.8h-7.2v9.8
		h-2.8V431.7z M529.5,444.6c3.8,0,6.5-1.9,6.5-5.2v-0.1c0-3.1-2.4-5-6.4-5h-7.8v10.2H529.5z"/>
	<path d="M557.9,431.6h2.7l11.5,25.4H569l-3-6.7h-13.7l-3,6.7h-2.9L557.9,431.6z M564.9,447.7l-5.7-12.8l-5.8,12.8H564.9z"/>
	<path d="M578.5,453.3l1.8-2.1c2.6,2.4,5.1,3.6,8.6,3.6c3.4,0,5.6-1.8,5.6-4.3v-0.1c0-2.3-1.3-3.7-6.6-4.8c-5.8-1.3-8.5-3.1-8.5-7.3
		v-0.1c0-4,3.5-6.9,8.3-6.9c3.7,0,6.3,1,8.9,3.1l-1.7,2.2c-2.3-1.9-4.7-2.7-7.3-2.7c-3.3,0-5.4,1.8-5.4,4.1v0.1
		c0,2.4,1.3,3.7,6.8,4.9c5.6,1.2,8.2,3.3,8.2,7.1v0.1c0,4.3-3.6,7.1-8.6,7.1C584.8,457.3,581.5,456,578.5,453.3z"/>
</g>
<g>
	<path d="M146.1,496h9.5l14.8,37.7l14.7-37.7h9.3l-20.3,49.4h-7.6L146.1,496z"/>
	<path d="M209.8,496h36.3v7.7h-27.7v12.7H243v7.7h-24.6v13.2h28.1v7.7h-36.7V496z"/>
	<path d="M263.7,496h8l26.3,33.9V496h8.5v49h-7.2l-27-34.9V545h-8.5V496z"/>
	<path d="M338,504h-15.5v-8h39.8v8h-15.5v41H338V504z"/>
	<path d="M389.4,495.7h8L419,545h-9.1l-5-11.8h-23.2l-5,11.8h-8.8L389.4,495.7z M401.7,525.6l-8.5-19.6l-8.4,19.6H401.7z"/>
	<path d="M429.5,537.8l5.7-5.9c2.9,3.7,5.7,5.8,9.9,5.8c4.6,0,7.8-3.1,7.8-9.7V496h8.9v32.3c0,5.8-1.8,10.2-4.6,13
		c-2.9,2.9-7,4.3-11.9,4.3C437.6,545.7,432.7,542.2,429.5,537.8z"/>
	<path d="M496.2,495.7h8l21.6,49.4h-9.1l-5-11.8h-23.2l-5,11.8h-8.8L496.2,495.7z M508.5,525.6L500,506l-8.4,19.6H508.5z"/>
	<path d="M537,537.9l5.2-6.2c4.7,4.1,9.5,6.4,15.5,6.4c5.3,0,8.7-2.5,8.7-6.2v-0.1c0-3.5-2-5.4-11.1-7.5
		c-10.4-2.5-16.3-5.6-16.3-14.6v-0.1c0-8.4,7-14.2,16.7-14.2c7.1,0,12.8,2.2,17.8,6.2l-4.6,6.5c-4.4-3.3-8.8-5-13.3-5
		c-5,0-8,2.6-8,5.8v0.1c0,3.8,2.2,5.5,11.7,7.7c10.4,2.5,15.7,6.2,15.7,14.4v0.1c0,9.2-7.2,14.6-17.5,14.6
		C549.9,545.7,542.8,543.1,537,537.9z"/>
	<path d="M634.5,525.7L615,496h10.2l13.7,21.6l13.9-21.6h9.9l-19.5,29.5V545h-8.7V525.7z"/>
	<path d="M182.2,627.9l5.2-6.2c4.7,4.1,9.5,6.4,15.5,6.4c5.3,0,8.7-2.5,8.7-6.2v-0.1c0-3.5-2-5.4-11.1-7.5
		c-10.4-2.5-16.3-5.6-16.3-14.6v-0.1c0-8.4,7-14.2,16.7-14.2c7.1,0,12.8,2.2,17.8,6.2l-4.6,6.5c-4.4-3.3-8.8-5-13.3-5
		c-5,0-8,2.6-8,5.8v0.1c0,3.8,2.2,5.5,11.7,7.7c10.4,2.5,15.7,6.2,15.7,14.4v0.1c0,9.2-7.2,14.6-17.5,14.6
		C195.2,635.7,188.1,633.1,182.2,627.9z"/>
	<path d="M237.3,586h36.3v7.7h-27.7v12.7h24.6v7.7h-24.6v13.2H274v7.7h-36.7V586z"/>
	<path d="M291.2,586h21.8c6.2,0,11,1.8,14.1,4.9c2.6,2.7,4.1,6.3,4.1,10.6v0.1c0,8.1-4.8,12.9-11.6,14.8l13.2,18.6h-10.2l-12-17.1
		h-10.8V635h-8.6V586z M312.4,610.3c6.2,0,10.1-3.2,10.1-8.2V602c0-5.3-3.8-8.1-10.2-8.1h-12.5v16.5H312.4z"/>
	<path d="M343.2,586h9.5l14.8,37.7l14.7-37.7h9.3l-20.3,49.4h-7.6L343.2,586z"/>
	<path d="M407.4,586h8.6v49h-8.6V586z"/>
	<path d="M434,610.7v-0.1c0-13.9,10.4-25.3,25.3-25.3c9,0,14.5,3.2,19.2,7.6l-5.5,6.4c-3.9-3.6-8.1-6.1-13.7-6.1
		c-9.3,0-16.2,7.7-16.2,17.3v0.1c0,9.6,6.8,17.4,16.2,17.4c6,0,9.9-2.4,14.1-6.3l5.5,5.6c-5.1,5.3-10.7,8.7-19.9,8.7
		C444.6,635.9,434,624.7,434,610.7z"/>
	<path d="M495.3,586h8.6v49h-8.6V586z"/>
	<path d="M521.8,610.7v-0.1c0-13.8,10.6-25.3,25.7-25.3s25.6,11.4,25.6,25.2v0.1c0,13.8-10.6,25.3-25.7,25.3
		C532.3,635.9,521.8,624.5,521.8,610.7z M564,610.7v-0.1c0-9.5-6.9-17.4-16.7-17.4c-9.7,0-16.5,7.8-16.5,17.3v0.1
		c0,9.5,6.9,17.4,16.7,17.4C557.2,627.9,564,620.2,564,610.7z"/>
	<path d="M586.8,627.9l5.2-6.2c4.7,4.1,9.5,6.4,15.5,6.4c5.3,0,8.7-2.5,8.7-6.2v-0.1c0-3.5-2-5.4-11.1-7.5
		c-10.4-2.5-16.3-5.6-16.3-14.6v-0.1c0-8.4,7-14.2,16.7-14.2c7.1,0,12.8,2.2,17.8,6.2l-4.6,6.5c-4.4-3.3-8.8-5-13.3-5
		c-5,0-8,2.6-8,5.8v0.1c0,3.8,2.2,5.5,11.7,7.7c10.4,2.5,15.7,6.2,15.7,14.4v0.1c0,9.2-7.2,14.6-17.5,14.6
		C599.8,635.7,592.7,633.1,586.8,627.9z"/>
</g>
<rect x="0.5" y="0.5" class="st1" width="798.9" height="798.9"/>
</svg>
