<?xml version="1.0" encoding="utf-8"?>
<!-- Generator: Adobe Illustrator 25.4.6, SVG Export Plug-In . SVG Version: 6.00 Build 0)  -->
<!DOCTYPE svg PUBLIC "-//W3C//DTD SVG 1.1//EN" "http://www.w3.org/Graphics/SVG/1.1/DTD/svg11.dtd" [
	<!ENTITY ns_extend "http://ns.adobe.com/Extensibility/1.0/">
	<!ENTITY ns_ai "http://ns.adobe.com/AdobeIllustrator/10.0/">
	<!ENTITY ns_graphs "http://ns.adobe.com/Graphs/1.0/">
	<!ENTITY ns_vars "http://ns.adobe.com/Variables/1.0/">
	<!ENTITY ns_imrep "http://ns.adobe.com/ImageReplacement/1.0/">
	<!ENTITY ns_sfw "http://ns.adobe.com/SaveForWeb/1.0/">
	<!ENTITY ns_custom "http://ns.adobe.com/GenericCustomNamespace/1.0/">
	<!ENTITY ns_adobe_xpath "http://ns.adobe.com/XPath/1.0/">
]>
<svg version="1.1" xmlns:x="&ns_extend;" xmlns:i="&ns_ai;" xmlns:graph="&ns_graphs;"
	 xmlns="http://www.w3.org/2000/svg" xmlns:xlink="http://www.w3.org/1999/xlink" x="0px" y="0px" viewBox="0 0 650 100"
	 style="enable-background:new 0 0 650 100;" xml:space="preserve">
<style type="text/css">
	.st0{display:none;}
	.st1{fill:none;stroke:#242424;stroke-width:3.0019;stroke-miterlimit:10;}
	.st2{fill:#028C38;}
	.st3{fill:none;stroke:#4D4D4D;stroke-width:0.5;stroke-miterlimit:10;}
</style>
<metadata>
	<sfw  xmlns="&ns_sfw;">
		<slices></slices>
		<sliceSourceBounds  bottomLeftOrigin="true" height="251.5" width="990" x="-45" y="-240.8"></sliceSourceBounds>
	</sfw>
</metadata>
<g id="Capa_1" class="st0">
</g>
<g id="Capa_2">
	<g>
		<g>
			<polygon class="st1" points="39.7,38.9 39.7,61.1 57.9,67.4 76.3,60.9 76.3,38.6 57.9,32.7 			"/>
			<polyline class="st1" points="76.7,38.6 58.5,44.1 39.7,38.9 			"/>
			<line class="st1" x1="57.9" y1="67.4" x2="57.9" y2="44.1"/>
		</g>
		<path class="st2" d="M58,86c-20.3,0-36.8-16.5-36.8-36.8c0-1,0-2.1,0.1-3.1c0.1-1,0.9-1.7,1.8-1.7c0.1,0,0.2,0,0.3,0
			c1,0.1,1.6,1,1.5,1.9c-0.1,1-0.1,1.9-0.1,2.9c0,18.3,14.9,33.2,33.2,33.2c9.1,0,17.5-3.6,23.8-10.1c6.3-6.5,9.6-15.1,9.3-24.1
			C90.6,31.1,76.8,17,59.7,16.1c-0.6,0-1.2,0-1.8,0c-7.1,0-13.8,2.2-19.5,6.4L38,22.7l4.1,3.8c0.2,0.2,0.4,0.6,0.3,1
			c-0.1,0.3-0.3,0.6-0.7,0.7l-14.8,4.8c-0.1,0-0.2,0-0.3,0c-0.3,0-0.6-0.1-0.8-0.4c-0.2-0.2-0.2-0.5-0.2-0.9l3.8-15.1
			c0.1-0.5,0.6-0.8,1-0.8c0.2,0,0.4,0,0.7,0.3l4.2,4l0.3-0.2c6.5-5,14.2-7.6,22.3-7.6c1.8,0,3.5,0.1,5.3,0.4
			c8.4,1.2,16.2,5.4,22,11.8c5.8,6.4,9.1,14.6,9.5,23.1c0.4,10.1-3.2,19.7-10.2,27C77.5,82,68.1,86,58,86z"/>
		<g>
			<path d="M123.1,26.3h7.1c6.4,0,10.9,4.4,10.9,10.2v0.1c0,5.8-4.5,10.3-10.9,10.3h-7.1V26.3z M125.4,28.5v16.2h4.8
				c5.2,0,8.5-3.5,8.5-8.1v-0.1c0-4.5-3.3-8.1-8.5-8.1H125.4z"/>
			<path d="M146,26.3h14.8v2.1h-12.5v7h11.2v2.1h-11.2v7.2H161v2.1h-15V26.3z"/>
			<path d="M163.9,26.3h2.6l7.3,17.7l7.3-17.7h2.5L174.8,47h-2.1L163.9,26.3z"/>
			<path d="M185.5,36.6L185.5,36.6c0-5.7,4.3-10.7,10.5-10.7c6.2,0,10.4,4.9,10.4,10.6v0.1c0,5.7-4.2,10.6-10.5,10.6
				C189.7,47.2,185.5,42.3,185.5,36.6z M204.1,36.6L204.1,36.6c0-4.7-3.4-8.5-8.1-8.5s-8,3.8-8,8.4v0.1c0,4.7,3.4,8.5,8.1,8.5
				S204.1,41.3,204.1,36.6z"/>
			<path d="M211.4,26.3h2.3v18.4h11.5v2.1h-13.9V26.3z"/>
			<path d="M228.6,38.3V26.3h2.3v11.8c0,4.4,2.4,6.9,6.3,6.9c3.8,0,6.2-2.3,6.2-6.8V26.3h2.3v11.8c0,6-3.4,9.1-8.6,9.1
				C232,47.2,228.6,44.1,228.6,38.3z"/>
			<path d="M250.2,36.6L250.2,36.6c0-5.9,4.3-10.7,10.4-10.7c3.7,0,6,1.3,8,3.3l-1.6,1.7c-1.7-1.6-3.7-2.8-6.4-2.8
				c-4.5,0-7.9,3.7-7.9,8.4v0.1c0,4.7,3.4,8.5,7.9,8.5c2.8,0,4.7-1.1,6.6-3l1.5,1.5c-2.1,2.2-4.5,3.6-8.2,3.6
				C254.6,47.2,250.2,42.5,250.2,36.6z"/>
			<path d="M273,26.3h2.3v20.5H273V26.3z"/>
			<path d="M280.4,36.6L280.4,36.6c0-5.7,4.3-10.7,10.5-10.7c6.2,0,10.4,4.9,10.4,10.6v0.1c0,5.7-4.2,10.6-10.5,10.6
				C284.6,47.2,280.4,42.3,280.4,36.6z M298.9,36.6L298.9,36.6c0-4.7-3.4-8.5-8.1-8.5s-8,3.8-8,8.4v0.1c0,4.7,3.4,8.5,8.1,8.5
				S298.9,41.3,298.9,36.6z M292.9,20.4l2.3,1.1l-3.4,2.7h-1.9L292.9,20.4z"/>
			<path d="M306.2,26.3h2.2l12.9,16.4V26.3h2.3v20.5h-1.8L308.5,30v16.8h-2.3V26.3z"/>
			<path d="M336.9,36.9L336.9,36.9c0-6.3,4.8-11.3,11.4-11.3c3.9,0,6.3,1.1,8.6,3l-3,3.6c-1.7-1.4-3.2-2.2-5.7-2.2
				c-3.5,0-6.3,3.1-6.3,6.8v0.1c0,4,2.7,6.9,6.6,6.9c1.7,0,3.3-0.4,4.5-1.3v-3.1h-4.8v-4.1h9.5v9.5c-2.2,1.9-5.3,3.5-9.3,3.5
				C341.6,48.1,336.9,43.4,336.9,36.9z"/>
			<path d="M362.3,26h10c2.8,0,4.9,0.8,6.3,2.2c1.2,1.2,1.9,2.9,1.9,5v0.1c0,3.5-1.9,5.7-4.7,6.8l5.3,7.8h-5.6l-4.7-7h-3.8v7h-4.8
				V26z M371.9,36.6c2.3,0,3.7-1.2,3.7-3.1v-0.1c0-2.1-1.4-3.1-3.8-3.1h-4.8v6.3H371.9z"/>
			<path d="M392.3,25.8h4.4l9.3,21.9h-5l-2-4.9h-9.2l-2,4.9h-4.9L392.3,25.8z M397.3,38.7l-2.9-7.1l-2.9,7.1H397.3z"/>
			<path d="M411.7,30.4H405V26h18.1v4.4h-6.6v17.4h-4.8V30.4z"/>
			<path d="M427,26h4.8v21.8H427V26z"/>
			<path d="M435.7,44.6l2.8-3.4c2,1.6,4,2.6,6.5,2.6c2,0,3.1-0.8,3.1-2.1v-0.1c0-1.2-0.7-1.8-4.4-2.8c-4.4-1.1-7.2-2.3-7.2-6.7v-0.1
				c0-4,3.2-6.6,7.6-6.6c3.2,0,5.9,1,8.1,2.8l-2.5,3.6c-1.9-1.3-3.8-2.1-5.7-2.1c-1.8,0-2.8,0.8-2.8,1.9v0.1c0,1.4,0.9,1.9,4.7,2.9
				c4.4,1.2,6.9,2.7,6.9,6.5v0.1c0,4.3-3.3,6.8-8,6.8C441.7,48.1,438.3,46.9,435.7,44.6z"/>
			<path d="M466.2,26.3h14.8v2.1h-12.5v7h11.2v2.1h-11.2v7.2h12.7v2.1h-15V26.3z"/>
			<path d="M485.9,26.3h2.2L501,42.8V26.3h2.3v20.5h-1.8L488.1,30v16.8h-2.3V26.3z"/>
			<path d="M523.2,28.5h-6.9v-2.1h16.1v2.1h-6.9v18.4h-2.3V28.5z"/>
			<path d="M537,26.3h2.3v20.5H537V26.3z"/>
			<path d="M545.3,26.3h14.8v2.1h-12.5v7h11.2v2.1h-11.2v7.2h12.7v2.1h-15V26.3z"/>
			<path d="M565,26.3h2.2l12.9,16.4V26.3h2.3v20.5h-1.8L567.2,30v16.8H565V26.3z"/>
			<path d="M588.1,26.3h7.1c6.4,0,10.9,4.4,10.9,10.2v0.1c0,5.8-4.5,10.3-10.9,10.3h-7.1V26.3z M590.4,28.5v16.2h4.8
				c5.2,0,8.5-3.5,8.5-8.1v-0.1c0-4.5-3.3-8.1-8.5-8.1H590.4z"/>
			<path d="M617.3,26.2h2.2l9.4,20.7h-2.5l-2.4-5.4h-11.2l-2.4,5.4h-2.4L617.3,26.2z M623,39.3l-4.7-10.4l-4.7,10.4H623z"/>
		</g>
		<g>
			<path d="M214.7,68.2c0-3.7,2-6.5,5.5-8.5l0.7,1c-3,1.9-4.6,4.3-4.6,7.5c0,3.2,1.6,5.6,4.6,7.5l-0.7,1
				C216.7,74.8,214.7,71.9,214.7,68.2z"/>
			<path d="M223.9,60H234v1.4h-8.5v4.8h7.6v1.4h-7.6v4.9h8.6v1.4h-10.2V60z"/>
			<path d="M241,67.7l3.1-4h1.7l-3.9,5l4.1,5.2h-1.8l-3.2-4.2l-3.2,4.2h-1.7l4-5.2l-3.9-5h1.7L241,67.7z"/>
			<path d="M247.1,68.9L247.1,68.9c0-2.9,2.3-5.4,5.3-5.4c1.9,0,3.2,0.8,4.1,1.8l-1,1.1c-0.8-0.9-1.7-1.6-3.1-1.6
				c-2.1,0-3.7,1.8-3.7,4v0c0,2.2,1.6,4,3.8,4c1.3,0,2.3-0.7,3.1-1.5l1,0.9c-1,1.2-2.3,2-4.2,2C249.4,74.2,247.1,71.7,247.1,68.9z"
				/>
			<path d="M258.2,68.8L258.2,68.8c0-3,2.1-5.4,4.9-5.4c3,0,4.8,2.4,4.8,5.4c0,0.2,0,0.3,0,0.5h-8.2c0.2,2.2,1.8,3.5,3.6,3.5
				c1.4,0,2.4-0.6,3.2-1.5l1,0.9c-1,1.2-2.3,1.9-4.2,1.9C260.5,74.2,258.2,72,258.2,68.8z M266.3,68.2c-0.2-1.9-1.2-3.5-3.3-3.5
				c-1.8,0-3.1,1.5-3.3,3.5H266.3z"/>
			<path d="M270.6,63.7h1.5v2.1c0.8-1.2,2-2.3,3.9-2.3c2.5,0,4.9,1.9,4.9,5.3v0c0,3.4-2.4,5.3-4.9,5.3c-1.9,0-3.1-1-3.9-2.2v5.2
				h-1.5V63.7z M279.4,68.8L279.4,68.8c0-2.5-1.7-4-3.6-4c-1.9,0-3.7,1.6-3.7,4v0c0,2.4,1.8,4,3.7,4
				C277.7,72.8,279.4,71.3,279.4,68.8z"/>
			<path d="M284.3,71.2V65h-1.4v-1.4h1.4v-3.1h1.5v3.1h3.3V65h-3.3v6c0,1.3,0.7,1.7,1.7,1.7c0.5,0,1-0.1,1.5-0.4v1.3
				c-0.5,0.3-1.1,0.4-1.8,0.4C285.6,74.1,284.3,73.3,284.3,71.2z"/>
			<path d="M290.9,68.9L290.9,68.9c0-2.9,2.3-5.4,5.4-5.4c3.1,0,5.3,2.4,5.3,5.3v0c0,2.9-2.3,5.4-5.4,5.4
				C293.1,74.2,290.9,71.8,290.9,68.9z M300,68.9L300,68.9c0-2.2-1.6-4.1-3.8-4.1c-2.2,0-3.8,1.8-3.8,4v0c0,2.2,1.6,4,3.8,4
				C298.5,72.8,300,71,300,68.9z"/>
			<path d="M310.3,63.7h1.5v1.7c0.7-1,1.6-1.9,3.3-1.9c1.7,0,2.7,0.9,3.3,2c0.7-1.1,1.8-2,3.6-2c2.4,0,3.8,1.6,3.8,4.1v6.4h-1.5v-6
				c0-2-1-3.1-2.7-3.1c-1.6,0-2.8,1.2-2.8,3.2v5.9h-1.5v-6c0-1.9-1-3.1-2.6-3.1s-2.9,1.4-2.9,3.2v5.9h-1.5V63.7z"/>
			<path d="M328.6,68.8L328.6,68.8c0-3,2.1-5.4,4.9-5.4c3,0,4.8,2.4,4.8,5.4c0,0.2,0,0.3,0,0.5h-8.2c0.2,2.2,1.8,3.5,3.6,3.5
				c1.4,0,2.4-0.6,3.2-1.5l1,0.9c-1,1.2-2.3,1.9-4.2,1.9C330.9,74.2,328.6,72,328.6,68.8z M336.8,68.2c-0.2-1.9-1.2-3.5-3.3-3.5
				c-1.8,0-3.1,1.5-3.3,3.5H336.8z"/>
			<path d="M341,63.7h1.5v2.7c0.8-1.7,2.2-2.9,4.2-2.9v1.7h-0.1c-2.2,0-4.1,1.6-4.1,4.7v4.1H341V63.7z"/>
			<path d="M348,68.9L348,68.9c0-2.9,2.3-5.4,5.3-5.4c1.9,0,3.2,0.8,4.1,1.8l-1,1.1c-0.8-0.9-1.7-1.6-3.1-1.6c-2.1,0-3.7,1.8-3.7,4
				v0c0,2.2,1.6,4,3.8,4c1.3,0,2.3-0.7,3.1-1.5l1,0.9c-1,1.2-2.3,2-4.2,2C350.3,74.2,348,71.7,348,68.9z"/>
			<path d="M359.2,71L359.2,71c0-2.2,1.8-3.4,4.4-3.4c1.3,0,2.2,0.2,3.2,0.4v-0.4c0-1.8-1.1-2.8-3.1-2.8c-1.2,0-2.2,0.3-3.1,0.8
				l-0.5-1.3c1.1-0.5,2.2-0.9,3.7-0.9c1.5,0,2.6,0.4,3.3,1.1c0.7,0.7,1.1,1.7,1.1,3v6.3h-1.5v-1.6c-0.7,0.9-1.9,1.8-3.7,1.8
				C361.1,74.2,359.2,73.1,359.2,71z M366.8,70.2v-1c-0.8-0.2-1.8-0.4-3-0.4c-1.9,0-3,0.8-3,2.1v0c0,1.3,1.2,2,2.6,2
				C365.2,72.9,366.8,71.8,366.8,70.2z"/>
			<path d="M371.5,63.7h1.5v1.8c0.7-1.1,1.7-2,3.5-2c2.5,0,3.9,1.7,3.9,4.1v6.4H379v-6c0-1.9-1-3.1-2.8-3.1c-1.8,0-3.1,1.3-3.1,3.2
				v5.9h-1.5V63.7z"/>
			<path d="M383.1,68.9L383.1,68.9c0-2.9,2.3-5.4,5.3-5.4c1.9,0,3.2,0.8,4.1,1.8l-1,1.1c-0.8-0.9-1.7-1.6-3.1-1.6
				c-2.1,0-3.7,1.8-3.7,4v0c0,2.2,1.6,4,3.8,4c1.3,0,2.3-0.7,3.1-1.5l1,0.9c-1,1.2-2.3,2-4.2,2C385.4,74.2,383.1,71.7,383.1,68.9z"
				/>
			<path d="M395.2,63.7h1.5v10.3h-1.5V63.7z M397.3,59.2l1.6,0.7l-2.3,2.1h-1.2L397.3,59.2z"/>
			<path d="M399.6,71L399.6,71c0-2.2,1.8-3.4,4.4-3.4c1.3,0,2.2,0.2,3.2,0.4v-0.4c0-1.8-1.1-2.8-3.1-2.8c-1.2,0-2.2,0.3-3.1,0.8
				l-0.5-1.3c1.1-0.5,2.2-0.9,3.7-0.9c1.5,0,2.6,0.4,3.3,1.1c0.7,0.7,1.1,1.7,1.1,3v6.3h-1.5v-1.6c-0.7,0.9-1.9,1.8-3.7,1.8
				C401.5,74.2,399.6,73.1,399.6,71z M407.1,70.2v-1c-0.8-0.2-1.8-0.4-3-0.4c-1.9,0-3,0.8-3,2.1v0c0,1.3,1.2,2,2.6,2
				C405.6,72.9,407.1,71.8,407.1,70.2z"/>
			<path d="M416.8,63.7h1.7l3.5,8.5l3.5-8.5h1.6L422.6,74h-1.4L416.8,63.7z"/>
			<path d="M428.3,68.9L428.3,68.9c0-2.9,2.3-5.4,5.4-5.4c3.1,0,5.3,2.4,5.3,5.3v0c0,2.9-2.3,5.4-5.4,5.4
				C430.5,74.2,428.3,71.8,428.3,68.9z M437.4,68.9L437.4,68.9c0-2.2-1.7-4.1-3.8-4.1c-2.2,0-3.8,1.8-3.8,4v0c0,2.2,1.6,4,3.8,4
				C435.9,72.8,437.4,71,437.4,68.9z"/>
			<path d="M441.9,59.4h1.5v14.5h-1.5V59.4z"/>
			<path d="M446.8,70v-6.4h1.5v6c0,1.9,1,3.1,2.8,3.1c1.8,0,3.1-1.3,3.1-3.2v-5.9h1.5v10.3h-1.5v-1.8c-0.7,1.1-1.8,2-3.5,2
				C448.3,74.2,446.8,72.5,446.8,70z"/>
			<path d="M459.2,63.7h1.5v1.7c0.7-1,1.6-1.9,3.3-1.9c1.7,0,2.7,0.9,3.3,2c0.7-1.1,1.8-2,3.6-2c2.4,0,3.8,1.6,3.8,4.1v6.4h-1.5v-6
				c0-2-1-3.1-2.7-3.1c-1.6,0-2.8,1.2-2.8,3.2v5.9h-1.5v-6c0-1.9-1-3.1-2.6-3.1c-1.6,0-2.9,1.4-2.9,3.2v5.9h-1.5V63.7z"/>
			<path d="M478.2,59.7h1.7v1.7h-1.7V59.7z M478.3,63.7h1.5v10.3h-1.5V63.7z"/>
			<path d="M483.4,63.7h1.5v1.8c0.7-1.1,1.7-2,3.5-2c2.5,0,3.9,1.7,3.9,4.1v6.4h-1.5v-6c0-1.9-1-3.1-2.8-3.1c-1.8,0-3.1,1.3-3.1,3.2
				v5.9h-1.5V63.7z"/>
			<path d="M495,68.9L495,68.9c0-2.9,2.3-5.4,5.4-5.4c3.1,0,5.3,2.4,5.3,5.3v0c0,2.9-2.3,5.4-5.4,5.4C497.2,74.2,495,71.8,495,68.9z
				 M504.1,68.9L504.1,68.9c0-2.2-1.7-4.1-3.8-4.1c-2.2,0-3.8,1.8-3.8,4v0c0,2.2,1.6,4,3.8,4C502.6,72.8,504.1,71,504.1,68.9z"/>
			<path d="M507.6,72.6l0.8-1.1c1.1,0.8,2.3,1.3,3.6,1.3c1.2,0,2.1-0.6,2.1-1.6v0c0-1-1.2-1.4-2.6-1.8c-1.6-0.5-3.4-1-3.4-2.9v0
				c0-1.8,1.5-2.9,3.5-2.9c1.3,0,2.6,0.4,3.7,1.1l-0.7,1.2c-1-0.6-2-1-3-1c-1.2,0-2,0.6-2,1.5v0c0,1,1.3,1.4,2.6,1.8
				c1.6,0.5,3.3,1.1,3.3,2.9v0c0,1.9-1.6,3.1-3.7,3.1C510.4,74.1,508.8,73.6,507.6,72.6z"/>
			<path d="M517.6,71L517.6,71c0-2.2,1.8-3.4,4.4-3.4c1.3,0,2.2,0.2,3.2,0.4v-0.4c0-1.8-1.1-2.8-3.1-2.8c-1.2,0-2.2,0.3-3.1,0.8
				l-0.5-1.3c1.1-0.5,2.2-0.9,3.7-0.9c1.5,0,2.6,0.4,3.3,1.1c0.7,0.7,1.1,1.7,1.1,3v6.3h-1.5v-1.6c-0.7,0.9-1.9,1.8-3.7,1.8
				C519.5,74.2,517.6,73.1,517.6,71z M525.2,70.2v-1c-0.8-0.2-1.8-0.4-3-0.4c-1.9,0-3,0.8-3,2.1v0c0,1.3,1.2,2,2.6,2
				C523.6,72.9,525.2,71.8,525.2,70.2z"/>
			<path d="M529.3,75.7c3-1.9,4.6-4.3,4.6-7.5c0-3.2-1.6-5.6-4.6-7.5l0.7-1c3.5,2,5.5,4.9,5.5,8.5s-2,6.5-5.5,8.5L529.3,75.7z"/>
		</g>
	</g>
	<text transform="matrix(1 0 0 1 116.2837 218.8398)" class="st0"><tspan x="0" y="0" style="display:inline; font-family:'Gotham-Book'; font-size:29.3093px;">DEVOLUCIÓN </tspan><tspan x="216.9" y="0.9" style="display:inline; font-family:'Gotham-Bold'; font-size:31.1315px;">GRATIS</tspan><tspan x="338.9" y="0" style="display:inline; font-family:'Gotham-Book'; font-size:29.3093px;"> EN TIENDA</tspan></text>
	<text transform="matrix(1 0 0 1 211.2344 245.9434)" class="st0" style="font-family:'Gotham-Book'; font-size:19.8883px;">(Excepto mercancía voluminosa)</text>
	<line class="st3" x1="0.5" y1="-0.5" x2="650.5" y2="-0.5"/>
	<line class="st3" x1="1" y1="98.5" x2="651" y2="98.5"/>
	<line class="st3" x1="1" y1="0.5" x2="651" y2="0.5"/>
</g>
</svg>
